<svg width="160" height="47" viewBox="0 0 160 47" fill="none" xmlns="http://www.w3.org/2000/svg">
<g clip-path="url(#clip0_2_294)">
<path fill-rule="evenodd" clip-rule="evenodd" d="M45.9432 1.42609H55.7167V20.3451L73.7402 1.42609H85.1998L67.4191 20.0694L86.3694 45.7539H74.7817L60.8648 26.883L55.7167 32.3321V45.7539H45.9432V1.42609Z" fill="#232623"/>
<path fill-rule="evenodd" clip-rule="evenodd" d="M23.1008 37.5215C15.4851 37.5215 9.75823 31.1891 9.75823 23.5898V23.0877C9.75823 15.4882 15.4851 9.15583 23.1008 9.15583C28.175 9.15583 31.284 11.18 34.7723 14.3435L40.0755 7.12924C35.7352 2.812 31.1243 0.163574 23.128 0.163574C10.0547 0.163574 0 10.2324 0 22.9609V23.7165C0 36.4449 10.0547 46.5137 23.128 46.5137C31.1243 46.5137 35.7352 43.8653 40.0755 39.5481L34.7723 32.3337C31.284 35.4973 28.175 37.5215 23.1008 37.5215Z" fill="#232623"/>
<path fill-rule="evenodd" clip-rule="evenodd" d="M140.821 1.39929L130.824 32.3135L121.075 1.42611H114.312L104.496 32.2754L94.5227 1.41842L84.7006 1.42611L99.1168 45.7387H108.986L117.641 18.1109L126.449 45.7387H136.296L150.696 1.39929H140.821Z" fill="#232623"/>
<mask id="mask0_2_294" style="mask-type:alpha" maskUnits="userSpaceOnUse" x="147" y="34" width="13" height="13">
<path d="M159.373 34.9263V46.5138H147.762V34.9263H159.373Z" fill="white"/>
</mask>
<g mask="url(#mask0_2_294)">
<path fill-rule="evenodd" clip-rule="evenodd" d="M153.567 46.5138C156.775 46.5138 159.373 43.9195 159.373 40.7209C159.373 37.5206 156.775 34.9263 153.567 34.9263C150.36 34.9263 147.762 37.5206 147.762 40.7209C147.762 43.9197 150.36 46.5138 153.567 46.5138Z" fill="#C8DD2D"/>
</g>
</g>
<defs>
<clipPath id="clip0_2_294">
<rect width="160" height="46.8293" fill="white"/>
</clipPath>
</defs>
</svg>
