<svg width="160" height="99" viewBox="0 0 160 99" fill="none" xmlns="http://www.w3.org/2000/svg">
<g clip-path="url(#clip0_1639_917)">
<path d="M159.516 59.2255H0.432617V58.159H159.516V59.2255ZM152.345 45.7925C156.56 45.7925 159.974 42.3752 159.974 38.1617C159.974 33.946 156.56 30.5286 152.345 30.5286C148.13 30.5286 144.716 33.946 144.716 38.1617C144.716 42.3752 148.13 45.7925 152.345 45.7925Z" fill="#C8DD2D"/>
<path d="M20.7283 93.1752H16.7616L14.8807 87.5301L5.77487 87.5382L3.9467 93.1752H-0.0205078L6.55685 72.653H13.9699L20.7283 93.1752ZM13.7925 84.2644L10.268 73.6857L6.83514 84.2694L13.7925 84.2644ZM31.5169 85.6562L36.7842 93.1786H32.4049L29.3237 88.6279L26.2426 93.1786H21.8634L27.1305 85.6562L21.8016 78.0458H26.1811L29.3237 82.6851L32.4661 78.0458H36.8459L31.5169 85.6562ZM52.923 85.4402C52.923 90.2029 49.7003 93.188 45.9639 93.188C44.3265 93.188 42.8251 92.2392 42.1144 90.9156V98.5858H38.4613V78.0549H42.1144V80.3285C42.6519 79.1189 44.0701 77.7603 45.9639 77.6949C49.7018 77.5662 52.923 80.6841 52.923 85.4402ZM49.2704 85.4396C49.2704 83.0135 47.8366 80.7915 45.7104 80.7915C43.4877 80.7915 42.1144 82.7637 42.1144 85.4396C42.1144 88.1155 43.4877 90.0889 45.7104 90.0889C47.8366 90.0889 49.2704 87.8657 49.2704 85.4396ZM69.4825 85.5873C69.4825 90.6135 65.9577 93.4838 61.9792 93.5173C58.0005 93.4838 54.4758 90.6292 54.4758 85.5873C54.4758 80.5457 58.0821 77.6576 61.9792 77.6576C65.8763 77.6576 69.4825 80.5614 69.4825 85.5873ZM65.8129 85.5873C65.8129 82.6247 63.9676 80.9092 61.9792 80.8792C59.9907 80.9092 58.1455 82.6087 58.1455 85.5873C58.1455 88.765 60.0357 90.2726 61.9792 90.2977C63.9226 90.2726 65.8129 88.765 65.8129 85.5873ZM95.6014 93.1752V90.3052C94.3903 92.2498 91.7416 93.7409 89.0072 93.7409C83.2073 93.7409 79.5531 89.0846 79.5531 82.9096C79.5531 76.7348 83.6408 72.0782 88.9709 72.0782C94.7302 72.0782 98.0557 75.749 98.6182 79.4892H94.8141C94.2813 77.2935 92.3189 75.2093 89.0601 75.3173C85.4062 75.4385 83.3763 79.0425 83.3763 82.9096C83.3763 86.7675 85.0932 90.1061 89.0601 90.5021C91.8612 90.7817 95.0574 89.2055 95.4064 85.274H89.0601V82.0559H98.849C98.8537 82.2493 98.8562 93.1752 98.8562 93.1752L95.6014 93.1752ZM110.718 78.0499V81.4367C110.718 81.4367 110.017 81.0889 108.705 81.0889C106.597 81.0889 105.498 82.2475 105.498 83.8261V93.1849H101.845V78.0458H105.498V80.3282C105.884 79.2266 107.126 77.6896 108.705 77.6896C109.414 77.6896 110.092 77.8173 110.718 78.0499ZM126.883 85.5873C126.883 90.6135 123.358 93.4838 119.379 93.5173C115.401 93.4838 111.876 90.6292 111.876 85.5873C111.876 80.5457 115.482 77.6576 119.379 77.6576C123.276 77.6576 126.883 80.5614 126.883 85.5873ZM123.213 85.5873C123.213 82.6247 121.368 80.9092 119.379 80.8792C117.391 80.9092 115.546 82.6087 115.546 85.5873C115.546 88.765 117.436 90.2726 119.379 90.2977C121.323 90.2726 123.213 88.765 123.213 85.5873ZM142.535 78.0458V93.1786H138.882V91.3004C138.388 92.1866 137.418 93.4647 135.493 93.5352C131.572 93.6839 129.357 90.7948 129.357 88.1286V78.0458H133.01V88.1286C133.01 89.4177 134.147 90.3227 136.036 90.3227C137.975 90.3227 138.883 88.9829 138.883 87.4042V78.0455L142.535 78.0458ZM159.979 85.4402C159.979 90.2029 156.757 93.188 153.021 93.188C151.383 93.188 149.882 92.2392 149.171 90.9156V98.5858H145.518V78.0549H149.171V80.3285C149.709 79.1189 151.127 77.7603 153.021 77.6949C156.759 77.5662 159.979 80.6841 159.979 85.4402ZM156.327 85.4396C156.327 83.0135 154.893 80.7915 152.767 80.7915C150.544 80.7915 149.171 82.7637 149.171 85.4396C149.171 88.1155 150.544 90.0889 152.767 90.0889C154.893 90.0889 156.327 87.8657 156.327 85.4396ZM22.7529 8.88387C27.7551 8.88387 30.8202 10.8836 34.2588 14.009L39.4866 6.88175C35.2079 2.61644 30.6625 -3.05176e-05 22.7798 -3.05176e-05C9.89206 -3.05176e-05 -0.0198129 9.94753 -0.0198129 22.5225V23.269C-0.0198129 35.8441 9.89206 45.7916 22.7798 45.7916C30.6625 45.7916 35.208 43.1751 39.4866 38.9097L34.2588 31.7825C30.8202 34.9079 27.7551 36.9077 22.7529 36.9077C15.2455 36.9077 9.59971 30.6515 9.59971 23.1439V22.6477C9.59971 15.1399 15.2455 8.88387 22.7529 8.88387ZM138.802 1.2208L128.947 31.7625L119.336 1.24732H112.669L102.993 31.7248L93.1609 1.23973L72.6735 1.24723L54.9058 19.9383V1.24723H45.2711V45.0408H54.9058V31.7807L59.9808 26.3974L73.7002 45.0408H85.1234L66.442 19.6659L83.6035 1.63263L97.6899 45.0259H107.419L115.951 17.7309L124.635 45.0259H134.341L148.537 1.2208H138.802Z" fill="white"/>
</g>
<defs>
<clipPath id="clip0_1639_917">
<rect width="160" height="98.5859" fill="white"/>
</clipPath>
</defs>
</svg>
